<?xml version="1.0" encoding="UTF-8" standalone="no"?>
<!DOCTYPE svg PUBLIC "-//W3C//DTD SVG 1.1//EN" "http://www.w3.org/Graphics/SVG/1.1/DTD/svg11.dtd">
<svg xmlns="http://www.w3.org/2000/svg" version="1.1" viewBox="0.00 0.00 1084.00 259.00">
<path fill="#c52342" d="
  M 99.93 21.64
  Q 182.45 21.63 188.08 21.72
  A 0.91 0.90 0.5 0 1 188.97 22.62
  L 188.97 71.01
  A 1.07 1.07 0.0 0 1 187.90 72.08
  L 132.81 72.08
  A 1.00 0.99 -0.0 0 0 131.81 73.07
  L 131.81 237.94
  A 0.90 0.90 0.0 0 1 130.92 238.84
  Q 115.86 238.94 99.97 238.94
  Q 84.07 238.95 69.02 238.85
  A 0.90 0.90 0.0 0 1 68.12 237.95
  L 68.06 73.08
  A 1.00 0.99 -0.0 0 0 67.06 72.09
  L 11.97 72.11
  A 1.07 1.07 0.0 0 1 10.90 71.04
  L 10.88 22.65
  A 0.91 0.90 -0.5 0 1 11.77 21.75
  Q 17.41 21.66 99.93 21.64
  Z"
/>
<rect fill="#c52342" x="201.11" y="21.64" width="63.72" height="217.28" rx="0.96"/>
<path fill="#c52342" d="
  M 473.92 237.99
  A 0.64 0.63 76.6 0 1 473.36 238.91
  L 404.17 238.91
  A 1.53 1.53 0.0 0 1 402.78 238.02
  L 369.50 166.97
  A 2.04 2.04 0.0 0 0 367.65 165.79
  L 348.98 165.79
  A 1.17 1.17 0.0 0 0 347.81 166.96
  L 347.81 238.08
  A 0.83 0.83 0.0 0 1 346.98 238.91
  L 284.90 238.91
  A 0.79 0.79 0.0 0 1 284.11 238.12
  L 284.11 22.65
  A 0.99 0.99 0.0 0 1 285.09 21.66
  Q 355.29 21.62 378.50 21.67
  Q 385.59 21.69 392.49 22.06
  Q 408.21 22.92 423.85 28.40
  C 445.05 35.81 460.33 51.73 465.65 73.83
  C 468.20 84.43 468.41 95.65 467.43 105.48
  Q 466.70 112.83 463.58 121.58
  Q 455.42 144.39 434.25 156.02
  A 1.22 1.22 0.0 0 0 433.74 157.64
  L 473.92 237.99
  Z
  M 347.86 69.95
  L 347.76 122.75
  A 1.34 1.34 0.0 0 0 349.10 124.09
  L 375.95 124.14
  A 27.13 26.34 0.1 0 0 403.13 97.85
  L 403.13 95.05
  A 27.13 26.34 0.1 0 0 376.05 68.66
  L 349.20 68.61
  A 1.34 1.34 0.0 0 0 347.86 69.95
  Z"
/>
<path fill="#c52342" d="
  M 681.97 21.65
  A 0.84 0.84 0.0 0 1 682.77 22.73
  L 617.47 238.35
  A 0.77 0.76 -81.2 0 1 616.74 238.89
  L 534.94 238.89
  A 0.54 0.53 81.0 0 1 534.43 238.51
  L 469.11 22.93
  A 0.99 0.99 0.0 0 1 470.06 21.65
  L 540.72 21.65
  A 1.78 1.77 -5.8 0 1 542.46 23.06
  C 548.71 53.31 556.31 85.77 562.07 112.70
  Q 566.34 132.60 576.47 177.29
  Q 576.64 178.01 576.81 178.17
  A 0.87 0.87 0.0 0 0 578.28 177.74
  L 612.78 22.71
  A 1.35 1.35 0.0 0 1 614.10 21.65
  L 681.97 21.65
  Z"
/>
<path fill="#c52342" d="
  M 840.68 130.27
  Q 840.68 149.42 840.66 152.09
  A 0.96 0.95 -89.9 0 1 839.71 153.04
  L 758.10 153.04
  A 1.38 1.38 0.0 0 0 756.72 154.42
  L 756.72 187.09
  A 1.31 1.31 0.0 0 0 758.03 188.40
  L 845.01 188.40
  A 1.20 1.20 0.0 0 1 846.21 189.60
  L 846.21 237.82
  A 1.11 1.10 0.0 0 1 845.10 238.92
  L 694.11 238.87
  A 0.98 0.97 89.0 0 1 693.14 237.92
  Q 693.06 235.54 693.07 130.26
  Q 693.08 24.97 693.16 22.59
  A 0.98 0.97 -89.0 0 1 694.13 21.65
  L 845.12 21.63
  A 1.11 1.10 0.0 0 1 846.23 22.73
  L 846.22 70.95
  A 1.20 1.20 0.0 0 1 845.02 72.15
  L 758.04 72.13
  A 1.31 1.31 0.0 0 0 756.73 73.44
  L 756.72 106.11
  A 1.38 1.38 0.0 0 0 758.10 107.49
  L 839.71 107.51
  A 0.96 0.95 89.9 0 1 840.67 108.46
  Q 840.68 111.13 840.68 130.27
  Z"
/>
<path fill="#c52342" d="
  M 1008.33 238.21
  L 997.52 196.35
  A 0.94 0.94 0.0 0 0 996.61 195.65
  L 931.47 195.65
  A 0.94 0.94 0.0 0 0 930.56 196.35
  L 919.71 238.20
  A 0.94 0.94 0.0 0 1 918.80 238.90
  L 855.97 238.90
  A 0.94 0.94 0.0 0 1 855.07 237.67
  L 925.31 22.31
  A 0.94 0.94 0.0 0 1 926.20 21.66
  L 1004.85 21.66
  A 0.94 0.94 0.0 0 1 1005.74 22.31
  L 1075.94 237.68
  A 0.94 0.94 0.0 0 1 1075.04 238.91
  L 1009.24 238.91
  A 0.94 0.94 0.0 0 1 1008.33 238.21
  Z
  M 942.68 149.53
  A 1.08 1.08 0.0 0 0 943.72 150.89
  L 984.36 150.89
  A 1.08 1.08 0.0 0 0 985.40 149.53
  L 965.08 72.82
  A 1.08 1.08 0.0 0 0 963.00 72.82
  L 942.68 149.53
  Z"
/>
</svg>
