<?xml version="1.0" encoding="UTF-8" standalone="no"?>
<!DOCTYPE svg PUBLIC "-//W3C//DTD SVG 1.1//EN" "http://www.w3.org/Graphics/SVG/1.1/DTD/svg11.dtd">
<svg xmlns="http://www.w3.org/2000/svg" version="1.1" viewBox="0.00 0.00 1254.00 1254.00">
<path fill="#c62243" d="
  M 627.31 479.09
  Q 628.09 478.03 628.44 475.94
  C 639.56 410.99 681.42 357.09 741.24 329.87
  Q 783.39 310.69 831.74 312.34
  C 878.26 313.93 922.66 332.57 957.81 362.47
  C 1002.33 400.33 1028.96 455.91 1034.96 513.77
  Q 1036.24 526.04 1035.89 545.01
  C 1034.68 610.41 1008.10 671.43 968.39 722.14
  C 958.86 734.30 947.25 747.39 936.55 758.37
  C 897.89 798.02 852.42 835.34 809.11 868.85
  Q 767.93 900.71 731.75 931.49
  Q 707.06 952.49 682.55 977.55
  Q 651.56 1009.23 627.23 1046.58
  A 0.77 0.77 0.0 0 1 625.95 1046.58
  C 613.01 1027.11 598.48 1007.62 582.37 989.88
  Q 555.66 960.45 522.68 933.58
  C 508.37 921.91 492.47 909.27 477.70 898.29
  C 438.43 869.09 407.46 846.12 374.87 819.39
  Q 344.26 794.27 316.40 767.10
  Q 294.01 745.25 274.73 720.28
  C 240.77 676.29 217.72 625.56 210.17 571.03
  C 208.41 558.29 208.02 545.80 208.23 533.00
  C 209.14 477.02 230.52 421.30 269.25 380.63
  Q 322.31 324.89 400.49 313.46
  Q 418.73 310.80 442.00 311.67
  Q 489.75 313.47 532.02 337.23
  Q 585.72 367.43 611.74 422.77
  Q 624.47 449.84 626.58 478.88
  A 0.40 0.40 0.0 0 0 627.31 479.09
  Z
  M 627.47 985.41
  Q 627.53 985.30 627.79 983.81
  C 634.09 947.90 648.80 914.84 668.39 884.64
  C 698.89 837.63 740.87 798.54 779.08 758.34
  Q 804.67 731.42 825.03 702.79
  Q 837.05 685.89 846.83 665.37
  Q 863.55 630.29 863.12 592.05
  C 862.60 546.28 839.46 505.37 800.16 482.34
  C 763.46 460.82 718.42 460.46 681.53 481.81
  C 658.53 495.13 641.50 515.06 627.07 536.29
  A 0.70 0.70 0.0 0 1 625.92 536.30
  C 613.32 518.27 599.01 501.31 581.17 488.70
  Q 545.75 463.67 503.29 466.16
  Q 468.64 468.20 440.05 487.06
  Q 410.83 506.34 395.62 537.85
  Q 383.93 562.05 383.05 588.03
  C 382.15 614.83 387.53 639.25 398.23 662.56
  C 409.85 687.86 426.34 710.32 445.31 730.71
  Q 460.55 747.10 471.42 757.33
  Q 500.85 785.05 521.62 804.58
  Q 545.34 826.88 566.46 852.99
  C 594.18 887.25 615.15 926.68 624.15 969.81
  Q 625.57 976.64 626.42 985.21
  A 0.56 0.56 0.0 0 0 627.47 985.41
  Z"
/>
</svg>
