<?xml version="1.0" encoding="UTF-8" standalone="no"?>
<!DOCTYPE svg PUBLIC "-//W3C//DTD SVG 1.1//EN" "http://www.w3.org/Graphics/SVG/1.1/DTD/svg11.dtd">
<svg xmlns="http://www.w3.org/2000/svg" version="1.1" viewBox="0.00 0.00 3624.00 866.00">
<path fill="#c52342" d="
  M 339.92 99.15
  Q 524.15 99.14 624.51 99.13
  A 0.47 0.46 0.3 0 1 624.98 99.59
  L 624.98 260.69
  A 0.79 0.79 0.0 0 1 624.19 261.48
  L 442.62 261.48
  A 0.60 0.59 -90.0 0 0 442.03 262.08
  L 442.03 793.76
  A 0.32 0.32 0.0 0 1 441.71 794.08
  Q 432.08 794.11 339.94 794.11
  Q 247.79 794.11 238.16 794.09
  A 0.32 0.32 0.0 0 1 237.84 793.77
  L 237.82 262.09
  A 0.60 0.59 90.0 0 0 237.23 261.49
  L 55.66 261.50
  A 0.79 0.79 0.0 0 1 54.87 260.71
  L 54.86 99.61
  A 0.47 0.46 -0.3 0 1 55.32 99.14
  Q 155.68 99.15 339.92 99.15
  Z"
/>
<rect fill="#c52342" x="687.71" y="99.16" width="204.22" height="694.98" rx="0.70"/>
<path fill="#c52342" d="
  M 956.88 98.92
  Q 956.93 98.91 957.09 99.02
  Q 957.22 99.11 957.29 99.11
  Q 1046.14 99.17 1266.50 99.14
  C 1369.40 99.12 1480.39 127.74 1525.79 230.65
  Q 1534.99 251.50 1539.91 276.03
  C 1554.47 348.54 1542.13 428.06 1492.57 485.33
  Q 1467.79 513.97 1433.84 530.45
  A 0.48 0.48 0.0 0 0 1433.62 531.09
  L 1564.85 793.15
  A 0.66 0.66 0.0 0 1 1564.26 794.11
  L 1337.60 794.11
  A 0.86 0.84 -12.6 0 1 1336.83 793.63
  L 1227.52 561.49
  A 0.88 0.87 77.1 0 0 1226.73 560.99
  L 1160.97 560.99
  A 0.62 0.62 0.0 0 0 1160.35 561.61
  L 1160.35 793.67
  A 0.44 0.44 0.0 0 1 1159.91 794.11
  L 956.60 794.11
  A 0.44 0.44 0.0 0 1 956.16 793.67
  Q 956.16 414.50 956.16 99.57
  A 0.91 0.60 -8.7 0 1 956.88 98.92
  Z
  M 1160.35 250.16
  L 1160.35 425.62
  A 0.47 0.46 90.0 0 0 1160.81 426.09
  Q 1198.06 426.22 1245.76 426.11
  C 1291.11 426.00 1328.10 402.04 1335.77 355.25
  C 1343.87 305.87 1316.18 261.02 1265.97 251.83
  Q 1255.72 249.96 1249.50 249.94
  Q 1210.89 249.80 1160.62 249.89
  A 0.27 0.27 0.0 0 0 1160.35 250.16
  Z"
/>
<path fill="#c52342" d="
  M 1548.39 99.13
  L 1781.79 99.13
  A 1.21 1.21 0.0 0 1 1782.97 100.08
  L 1893.76 599.87
  A 0.80 0.80 0.0 0 0 1894.54 600.50
  L 1897.33 600.50
  A 0.75 0.74 6.3 0 0 1898.06 599.92
  L 2008.91 99.82
  A 0.89 0.89 0.0 0 1 2009.78 99.13
  L 2233.67 99.13
  A 0.59 0.59 0.0 0 1 2234.23 99.89
  L 2023.73 793.63
  A 0.68 0.68 0.0 0 1 2023.08 794.11
  L 1759.17 794.11
  A 0.74 0.73 -8.6 0 1 1758.47 793.60
  L 1547.93 99.74
  A 0.48 0.48 0.0 0 1 1548.39 99.13
  Z"
/>
<path fill="#c52342" d="
  M 2769.53 446.71
  Q 2769.53 483.18 2769.43 519.67
  A 0.26 0.25 -0.1 0 1 2769.17 519.93
  L 2502.09 519.93
  A 0.81 0.81 0.0 0 0 2501.28 520.74
  L 2501.28 631.29
  A 0.58 0.58 0.0 0 0 2501.86 631.87
  L 2786.84 631.87
  A 0.48 0.48 0.0 0 1 2787.32 632.35
  L 2787.32 793.63
  A 0.56 0.56 0.0 0 1 2786.76 794.19
  L 2297.65 794.19
  A 0.61 0.61 0.0 0 1 2297.04 793.57
  Q 2297.06 784.01 2297.07 446.70
  Q 2297.08 109.40 2297.06 99.83
  A 0.61 0.61 0.0 0 1 2297.67 99.21
  L 2786.78 99.24
  A 0.56 0.56 0.0 0 1 2787.34 99.80
  L 2787.33 261.08
  A 0.48 0.48 0.0 0 1 2786.85 261.56
  L 2501.87 261.54
  A 0.58 0.58 0.0 0 0 2501.29 262.12
  L 2501.28 372.67
  A 0.81 0.81 0.0 0 0 2502.09 373.48
  L 2769.17 373.50
  A 0.26 0.25 0.2 0 1 2769.43 373.75
  Q 2769.53 410.25 2769.53 446.71
  Z"
/>
<path fill="#c52342" d="
  M 3558.15 794.11
  L 3341.52 794.11
  A 0.56 0.55 -6.6 0 1 3340.98 793.69
  L 3305.12 656.45
  A 0.79 0.77 -7.1 0 0 3304.36 655.87
  L 3093.68 655.87
  A 0.74 0.74 0.0 0 0 3092.96 656.43
  L 3057.10 793.70
  A 0.55 0.55 0.0 0 1 3056.57 794.11
  L 2849.41 794.11
  A 0.25 0.25 0.0 0 1 2849.17 793.78
  L 3075.45 100.01
  A 1.27 1.26 8.8 0 1 3076.66 99.13
  L 3331.35 99.13
  A 0.85 0.84 80.9 0 1 3332.15 99.72
  L 3558.49 793.65
  A 0.36 0.35 -8.9 0 1 3558.15 794.11
  Z
  M 3199.04 511.86
  Q 3258.45 511.86 3267.23 511.89
  A 0.49 0.48 82.6 0 0 3267.70 511.28
  L 3201.12 260.10
  A 0.67 0.66 87.8 0 0 3200.62 259.63
  Q 3199.85 259.48 3199.04 259.48
  Q 3198.24 259.48 3197.46 259.63
  A 0.67 0.66 -87.8 0 0 3196.96 260.10
  L 3130.37 511.28
  A 0.49 0.48 -82.6 0 0 3130.84 511.89
  Q 3139.62 511.86 3199.04 511.86
  Z"
/>
</svg>
